# xmcd
#
# Track frame offsets: 
#        151
#        18738
#        37301
#        55498
#        73925
#        91074
#        108511
#        129396
#        149381
#        170566
#        188003
#        207168
#        224781
#        243502
#
# Disc length: 3482 seconds
#
# Revision: 0
# Processed by: cddbd v1.5.1PL2 Copyright (c) Steve Scherf et al.
# Submitted via: ExactAudioCopy v0.95b4
#
DISCID=df0d980e
DTITLE=ร็อคแสลง - ร็อค..ตลับทอง
DYEAR=2003
DGENRE=Country
TTITLE0=มอเตอร์ไซด์ฮ่าง
TTITLE1=ไอ้หนุ่มโลโซ
TTITLE2=จักรยานแก่นหล่อน
TTITLE3=ทหารเกณฑ์คนจน
TTITLE4=กิ้งกือตกส่าง
TTITLE5=เมียแก่ที่บ้านเก่า
TTITLE6=อยากมีมือถือ
TTITLE7=อิจฉากระเทย
TTITLE8=เถิงเศร้าเถิงม่วน
TTITLE9=คอยพี่ที่งานกาชาด
TTITLE10=เลหลัง
TTITLE11=พุทธศาสนิกชน
TTITLE12=สาวเบียร์กระโปรงบาน
TTITLE13=อยากมีเมีย
EXTD=
EXTT0=
EXTT1=
EXTT2=
EXTT3=
EXTT4=
EXTT5=
EXTT6=
EXTT7=
EXTT8=
EXTT9=
EXTT10=
EXTT11=
EXTT12=
EXTT13=
PLAYORDER=
